<?xml version="1.0" encoding="UTF-8" standalone="no"?>
<!DOCTYPE svg PUBLIC "-//W3C//DTD SVG 1.1//EN" "http://www.w3.org/Graphics/SVG/1.1/DTD/svg11.dtd">
<svg xmlns="http://www.w3.org/2000/svg" version="1.1" viewBox="0.00 0.00 200.00 200.00">
<path fill="#16ea9e" d="
  M 94.24 40.90
  C 87.49 39.29 82.36 45.32 81.85 51.42
  A 0.34 0.34 0.0 0 1 81.52 51.73
  L 76.64 51.74
  A 0.32 0.31 1.7 0 1 76.32 51.41
  C 77.03 41.45 84.73 34.10 94.75 35.34
  C 96.23 35.53 97.95 36.23 99.58 36.73
  Q 100.05 36.88 100.52 36.70
  C 111.70 32.40 123.16 39.02 123.56 51.16
  Q 123.57 51.48 123.25 51.48
  L 118.46 51.51
  Q 118.23 51.51 118.20 51.28
  C 116.54 38.79 101.06 36.72 97.13 48.47
  C 96.27 51.06 97.06 55.37 100.94 54.32
  C 104.67 53.31 102.95 47.60 101.56 45.64
  Q 100.81 44.57 101.90 43.84
  L 104.25 42.29
  Q 105.35 41.56 106.11 42.63
  C 109.96 48.07 109.90 57.51 102.53 59.69
  Q 98.70 60.83 95.56 58.85
  C 88.94 54.67 91.18 46.98 94.50 41.53
  Q 94.81 41.03 94.24 40.90
  Z"
/>
<path fill="#f9cd0f" d="
  M 80.89 82.81
  C 82.50 88.89 89.78 91.30 95.08 88.98
  Q 95.86 88.64 96.30 89.37
  L 98.33 92.74
  A 0.82 0.81 62.0 0 1 97.98 93.90
  C 87.18 98.96 75.90 91.88 74.65 80.24
  Q 74.60 79.77 74.23 79.48
  C 64.93 71.98 65.48 58.99 75.45 52.33
  Q 76.38 51.71 76.82 52.73
  L 78.25 56.01
  Q 78.64 56.90 77.90 57.54
  C 71.45 63.07 71.26 70.88 78.49 75.58
  Q 83.30 78.70 88.73 75.52
  Q 91.19 74.08 89.97 71.51
  L 89.78 71.09
  A 2.53 2.53 0.0 0 0 86.70 69.77
  Q 83.05 70.97 81.45 74.50
  A 1.06 1.05 27.9 0 1 79.94 74.96
  L 77.06 73.21
  Q 76.07 72.62 76.62 71.60
  Q 79.13 66.98 83.50 65.05
  C 88.33 62.91 93.45 64.82 95.32 69.77
  C 98.72 78.81 88.30 83.37 81.28 82.37
  Q 80.76 82.30 80.89 82.81
  Z"
/>
<path fill="#1a85f9" d="
  M 124.30 73.82
  C 128.59 68.83 127.47 61.57 121.95 57.87
  Q 121.70 57.70 121.85 57.44
  L 124.32 53.22
  Q 124.46 52.96 124.71 53.13
  C 134.42 59.73 135.16 73.51 125.22 80.28
  Q 124.82 80.55 124.76 81.04
  C 123.23 92.84 111.34 99.42 100.70 93.76
  Q 100.41 93.60 100.57 93.32
  L 102.92 89.22
  Q 103.10 88.91 103.42 89.05
  C 114.21 93.53 123.85 83.14 117.21 73.29
  C 115.19 70.28 109.57 68.02 109.29 73.76
  A 1.33 1.31 26.7 0 0 109.59 74.65
  Q 112.37 77.96 116.78 77.46
  A 1.09 1.08 86.4 0 1 117.99 78.53
  L 118.01 81.77
  A 1.19 1.18 -2.3 0 1 116.91 82.96
  Q 109.99 83.44 105.58 78.43
  C 102.34 74.75 103.85 69.00 107.50 66.31
  C 113.98 61.52 121.28 67.78 123.70 73.72
  A 0.36 0.36 0.0 0 0 124.30 73.82
  Z"
/>
<path fill="#242422" d="
  M 119.70 127.92
  C 123.88 126.65 122.62 121.25 119.31 119.66
  C 116.98 118.53 112.88 117.50 110.75 115.77
  C 106.86 112.61 107.09 105.44 112.12 103.12
  Q 119.54 99.70 126.04 105.54
  A 0.35 0.33 -47.3 0 1 126.05 106.03
  L 123.72 108.43
  A 0.25 0.25 0.0 0 1 123.36 108.43
  Q 119.04 103.82 113.74 106.40
  Q 111.77 107.36 112.01 109.99
  C 112.61 116.39 127.46 113.42 126.43 124.50
  Q 125.86 130.74 119.25 131.92
  Q 111.39 133.32 106.40 127.47
  Q 106.18 127.22 106.42 126.98
  L 108.68 124.68
  Q 108.86 124.50 109.02 124.70
  Q 113.11 129.91 119.70 127.92
  Z"
/>
<path fill="#242422" d="
  M 152.9635 132.1161
  A 15.14 14.84 88.7 0 1 137.7838 117.3167
  A 15.14 14.84 88.7 0 1 152.2765 101.8439
  A 15.14 14.84 88.7 0 1 167.4562 116.6433
  A 15.14 14.84 88.7 0 1 152.9635 132.1161
  Z
  M 152.5801 128.4200
  A 11.43 10.82 90.1 0 0 163.4200 117.0089
  A 11.43 10.82 90.1 0 0 152.6199 105.5600
  A 11.43 10.82 90.1 0 0 141.7800 116.9711
  A 11.43 10.82 90.1 0 0 152.5801 128.4200
  Z"
/>
<path fill="#242422" d="
  M 23.73 130.56
  L 35.28 102.36
  A 0.27 0.27 0.0 0 1 35.54 102.19
  L 38.01 102.26
  A 0.27 0.27 0.0 0 1 38.26 102.42
  L 50.06 131.39
  A 0.27 0.27 0.0 0 1 49.81 131.76
  L 46.06 131.74
  A 0.27 0.27 0.0 0 1 45.81 131.57
  L 43.29 125.17
  A 0.27 0.27 0.0 0 0 43.04 125.00
  L 30.34 125.00
  A 0.27 0.27 0.0 0 0 30.09 125.17
  L 27.57 131.56
  A 0.27 0.27 0.0 0 1 27.32 131.73
  L 5.02 131.75
  A 0.27 0.27 0.0 0 1 4.75 131.48
  L 4.75 102.53
  A 0.27 0.27 0.0 0 1 5.02 102.26
  L 8.47 102.26
  A 0.27 0.27 0.0 0 1 8.74 102.53
  L 8.75 127.73
  A 0.27 0.27 0.0 0 0 9.02 128.00
  L 23.02 128.00
  A 0.27 0.27 0.0 0 1 23.29 128.28
  L 23.21 130.45
  A 0.27 0.27 0.0 0 0 23.73 130.56
  Z
  M 31.77 121.08
  A 0.31 0.31 0.0 0 0 32.06 121.50
  L 41.40 121.50
  A 0.31 0.31 0.0 0 0 41.69 121.08
  L 37.02 109.35
  A 0.31 0.31 0.0 0 0 36.44 109.35
  L 31.77 121.08
  Z"
/>
<path fill="#242422" d="
  M 62.94 106.39
  L 62.99 114.81
  A 0.44 0.44 0.0 0 0 63.43 115.25
  L 76.81 115.25
  A 0.44 0.44 0.0 0 1 77.25 115.69
  L 77.25 118.31
  A 0.44 0.44 0.0 0 1 76.81 118.75
  L 63.41 118.75
  A 0.44 0.44 0.0 0 0 62.97 119.19
  L 62.98 131.34
  A 0.44 0.44 0.0 0 1 62.54 131.78
  L 59.46 131.75
  A 0.44 0.44 0.0 0 1 59.02 131.31
  L 59.03 102.70
  A 0.44 0.44 0.0 0 1 59.47 102.26
  L 77.52 102.26
  A 0.44 0.44 0.0 0 1 77.96 102.70
  L 78.00 105.52
  A 0.44 0.44 0.0 0 1 77.55 105.97
  L 63.38 105.95
  A 0.44 0.44 0.0 0 0 62.94 106.39
  Z"
/>
<path fill="#242422" d="
  M 86.07 124.76
  C 89.61 131.25 99.68 128.53 99.72 120.74
  Q 99.76 111.49 99.75 102.51
  Q 99.75 102.24 100.02 102.24
  L 103.45 102.23
  Q 103.76 102.23 103.76 102.55
  Q 103.75 109.92 103.76 117.46
  Q 103.77 123.71 102.44 126.33
  C 97.12 136.82 80.93 132.54 80.99 120.25
  Q 81.03 111.29 81.03 102.71
  Q 81.03 102.24 81.50 102.24
  L 84.52 102.25
  A 0.46 0.46 0.0 0 1 84.98 102.72
  Q 84.95 110.51 84.98 118.54
  Q 84.99 122.79 86.07 124.76
  Z"
/>
<rect fill="#242422" x="130.01" y="102.22" width="3.98" height="29.52" rx="0.65"/>
<path fill="#242422" d="
  M 190.50 123.24
  L 190.50 102.74
  Q 190.50 102.23 191.01 102.24
  L 194.25 102.26
  A 0.24 0.24 0.0 0 1 194.49 102.50
  L 194.50 131.25
  Q 194.50 131.76 194.00 131.76
  L 192.27 131.76
  A 1.27 1.25 71.1 0 1 191.27 131.26
  L 175.87 110.72
  Q 175.22 109.86 175.22 110.94
  L 175.26 131.49
  A 0.25 0.25 0.0 0 1 175.01 131.74
  L 171.51 131.76
  A 0.26 0.25 -0.0 0 1 171.25 131.51
  L 171.25 102.98
  Q 171.25 102.45 171.76 102.30
  C 173.13 101.89 173.99 102.20 174.86 103.38
  Q 182.31 113.43 189.93 123.44
  Q 190.50 124.18 190.50 123.24
  Z"
/>
<path fill="#242422" d="
  M 62.50 159.50
  Q 61.09 160.75 62.98 160.75
  L 74.50 160.75
  Q 75.00 160.75 75.00 161.25
  L 75.00 163.75
  Q 75.00 164.25 74.50 164.25
  L 56.25 164.25
  A 1.38 1.37 -67.8 0 1 55.27 161.91
  Q 61.60 155.41 67.68 148.93
  C 76.31 139.73 63.47 133.68 58.54 142.42
  Q 58.41 142.64 58.21 142.47
  L 55.83 140.44
  A 0.32 0.30 -55.1 0 1 55.77 140.06
  C 59.83 133.15 71.73 131.86 74.16 140.55
  C 76.17 147.75 67.36 155.15 62.50 159.50
  Z"
/>
<path fill="#242422" d="
  M 89.1333 164.8699
  A 15.27 12.05 89.8 0 1 77.0301 149.6421
  A 15.27 12.05 89.8 0 1 89.0267 134.3301
  A 15.27 12.05 89.8 0 1 101.1299 149.5579
  A 15.27 12.05 89.8 0 1 89.1333 164.8699
  Z
  M 89.0096 161.1499
  A 11.56 8.08 90.2 0 0 97.1300 149.6182
  A 11.56 8.08 90.2 0 0 89.0904 138.0301
  A 11.56 8.08 90.2 0 0 80.9700 149.5618
  A 11.56 8.08 90.2 0 0 89.0096 161.1499
  Z"
/>
<path fill="#242422" d="
  M 109.27 160.76
  L 121.75 160.75
  Q 122.25 160.75 122.25 161.25
  L 122.25 163.75
  Q 122.25 164.25 121.75 164.25
  L 103.03 164.25
  Q 102.59 164.25 102.53 163.82
  C 102.37 162.76 102.36 162.08 103.14 161.26
  Q 109.19 154.99 115.12 148.62
  C 123.43 139.68 110.64 133.93 105.92 142.16
  A 0.43 0.42 -55.5 0 1 105.29 142.28
  L 103.30 140.74
  Q 102.87 140.41 103.12 139.93
  C 106.35 133.77 117.52 131.86 120.57 139.09
  Q 123.06 145.00 119.01 149.77
  Q 114.28 155.35 109.07 160.25
  A 0.30 0.29 -66.6 0 0 109.27 160.76
  Z"
/>
<path fill="#242422" d="
  M 136.30 138.49
  L 125.52 138.50
  A 0.49 0.49 0.0 0 1 125.03 138.02
  L 125.00 135.51
  Q 124.99 135.01 125.49 135.01
  L 142.01 135.00
  A 1.31 1.30 20.7 0 1 142.99 137.17
  L 135.21 145.98
  Q 135.01 146.21 135.30 146.28
  Q 139.19 147.19 141.22 149.50
  C 145.20 154.03 143.16 161.53 137.57 163.86
  Q 129.99 167.02 124.05 160.99
  Q 123.61 160.53 124.06 160.08
  L 125.95 158.21
  Q 126.34 157.82 126.68 158.26
  C 128.80 161.05 133.75 161.99 136.69 159.94
  C 140.31 157.41 140.10 151.81 136.01 149.74
  Q 133.75 148.59 130.08 149.44
  Q 129.53 149.57 129.51 149.01
  L 129.48 147.74
  A 1.38 1.37 -25.0 0 1 129.82 146.81
  L 136.59 139.14
  Q 137.17 138.49 136.30 138.49
  Z"
/>
</svg>
